<svg xmlns="http://www.w3.org/2000/svg" width="34.8" height="34.8" viewBox="0 0 9.207 9.207"><g fill="none" transform="translate(.53 .53) scale(.25466)"><circle cx="16" cy="16" r="16" fill="#48beff"/><g fill="#fff"><path d="M22.194 26.239 5.81 14.744a4.247 4.247 0 0 1 0-6.953L9.78 5l16.386 11.494a4.247 4.247 0 0 1 0 6.953zM9.776 6.863 6.683 9.027a2.729 2.729 0 0 0 0 4.473l15.514 10.877 3.094-2.164a2.729 2.729 0 0 0 0-4.473z"/><path d="m9.763 24.377-3.09-2.167a2.729 2.729 0 0 1 0-4.473l8-5.583-1.32-.928-7.544 5.268a4.247 4.247 0 0 0 0 6.953l3.957 2.779 4.897-3.429-1.314-.926zM26.17 7.797 22.21 5.02l-4.9 3.429 1.314.925 3.58-2.505 3.09 2.167a2.729 2.729 0 0 1 0 4.473l-8 5.582 1.315.926 7.554-5.277a4.247 4.247 0 0 0 0-6.953l.008.01z"/><path d="m6.746 15.829 6.23-4.362.868 1.24-6.231 4.362zm17.75-1.758-3.035 2.125.868 1.241 3.142-2.204c-.334-.382-.657-.772-.981-1.163Z"/></g></g></svg>