<?xml version="1.0" encoding="UTF-8" standalone="no"?>
<svg
   xmlns:dc="http://purl.org/dc/elements/1.1/"
   xmlns:cc="http://creativecommons.org/ns#"
   xmlns:rdf="http://www.w3.org/1999/02/22-rdf-syntax-ns#"
   xmlns:svg="http://www.w3.org/2000/svg"
   xmlns="http://www.w3.org/2000/svg"
   xmlns:sodipodi="http://sodipodi.sourceforge.net/DTD/sodipodi-0.dtd"
   xmlns:inkscape="http://www.inkscape.org/namespaces/inkscape"
   width="167.69438"
   height="41.839912"
   viewBox="0 0 44.36914 11.070144"
   version="1.1"
   id="svg8"
   sodipodi:docname="loom-logo.inkscape.svg"
   inkscape:version="1.0.2-2 (e86c870879, 2021-01-15)">
  <defs
     id="defs2">
    <rect
       x="81.264877"
       y="156.29317"
       width="49.2314"
       height="19.560268"
       id="rect1007" />
  </defs>
  <sodipodi:namedview
     id="base"
     pagecolor="#ffffff"
     bordercolor="#666666"
     borderopacity="1.0"
     inkscape:pageopacity="0.0"
     inkscape:pageshadow="2"
     inkscape:zoom="1.4"
     inkscape:cx="-69.924393"
     inkscape:cy="-50.386605"
     inkscape:document-units="mm"
     inkscape:current-layer="layer1"
     inkscape:document-rotation="0"
     showgrid="false"
     showguides="true"
     inkscape:guide-bbox="true"
     inkscape:window-width="2560"
     inkscape:window-height="1387"
     inkscape:window-x="-8"
     inkscape:window-y="-8"
     inkscape:window-maximized="1"
     inkscape:snap-center="true"
     inkscape:snap-object-midpoints="true"
     inkscape:snap-bbox="true"
     inkscape:snap-bbox-midpoints="true"
     inkscape:pagecheckerboard="true"
     lock-margins="true"
     units="px"
     inkscape:snap-midpoints="true"
     inkscape:bbox-nodes="true"
     fit-margin-top="5"
     fit-margin-left="5"
     fit-margin-right="5"
     fit-margin-bottom="5">
    <inkscape:grid
       type="xygrid"
       id="grid847"
       originx="-158.57775"
       originy="-292.06959" />
    <sodipodi:guide
       position="-76.923851,428.67326"
       orientation="0,793.70079"
       id="guide849" />
    <sodipodi:guide
       position="133.07616,428.67326"
       orientation="1122.5197,0"
       id="guide851" />
    <sodipodi:guide
       position="133.07616,131.67327"
       orientation="0,-793.70079"
       id="guide853" />
    <sodipodi:guide
       position="-76.923851,131.67327"
       orientation="-1122.5197,0"
       id="guide855" />
    <sodipodi:guide
       position="-76.923851,131.67327"
       orientation="297.0,0"
       id="guide865" />
    <sodipodi:guide
       position="28.076152,131.67327"
       orientation="297.0,0"
       id="guide867" />
    <sodipodi:guide
       position="133.07616,131.67327"
       orientation="297.0,0"
       id="guide869" />
    <sodipodi:guide
       position="-76.923851,131.67327"
       orientation="0,210.0"
       id="guide871" />
    <sodipodi:guide
       position="-76.923851,280.17326"
       orientation="0,210.0"
       id="guide873" />
    <sodipodi:guide
       position="-76.923851,428.67326"
       orientation="0,210.0"
       id="guide875" />
    <sodipodi:guide
       position="-76.923851,131.67327"
       orientation="297.0,0"
       id="guide906" />
    <sodipodi:guide
       position="28.076152,131.67327"
       orientation="297.0,0"
       id="guide908" />
    <sodipodi:guide
       position="133.07616,131.67327"
       orientation="297.0,0"
       id="guide910" />
    <sodipodi:guide
       position="-76.923851,131.67327"
       orientation="0,210.0"
       id="guide912" />
    <sodipodi:guide
       position="-76.923851,280.17326"
       orientation="0,210.0"
       id="guide914" />
    <sodipodi:guide
       position="-76.923851,428.67326"
       orientation="0,210.0"
       id="guide916" />
    <sodipodi:guide
       position="13.270129,9.630807"
       orientation="0,-1"
       id="guide1052" />
    <sodipodi:guide
       position="16.148785,1.4816665"
       orientation="0,-1"
       id="guide1054" />
  </sodipodi:namedview>
  <metadata
     id="metadata5">
    <rdf:RDF>
      <cc:Work
         rdf:about="">
        <dc:format>image/svg+xml</dc:format>
        <dc:type
           rdf:resource="http://purl.org/dc/dcmitype/StillImage" />
        <dc:title></dc:title>
      </cc:Work>
    </rdf:RDF>
  </metadata>
  <g
     inkscape:label="Layer 1"
     inkscape:groupmode="layer"
     id="layer1"
     transform="translate(-76.923847,-155.97789)">
    <path
       d="m 110.68849,161.4283 q 0,1.76741 -1.25942,3.0374 -1.24883,1.25942 -3.00566,1.25942 -1.74624,0 -3.02682,-1.21708 -1.27,-1.21708 -1.27,-2.93158 0,-1.75683 1.23825,-3.01624 1.24883,-1.25941 3.00565,-1.25941 1.75683,0 3.03742,1.2065 1.28058,1.19591 1.28058,2.92099 z m -0.78317,0.0529 q -0.0212,-1.41816 -1.05833,-2.40241 -1.02658,-0.98424 -2.45533,-0.98424 -1.40758,0 -2.42357,1.00541 -1.016,1.00541 -1.016,2.41299 0,1.397 1.016,2.40241 1.01599,1.00542 2.43415,1.016 1.43933,0.0106 2.4765,-1.00542 1.03716,-1.01599 1.02658,-2.44474 z"
       style="font-style:normal;font-variant:normal;font-weight:normal;font-stretch:normal;font-size:10.5833px;line-height:1.25;font-family:abeatbyKai;-inkscape-font-specification:'abeatbyKai, Normal';font-variant-ligatures:normal;font-variant-caps:normal;font-variant-numeric:normal;font-variant-east-asian:normal;white-space:pre;fill:#212121;fill-opacity:1;stroke:none"
       id="path1043" />
    <path
       d="m 119.97003,165.56637 h -0.8255 v -7.19665 l -3.1009,7.19665 h -0.68792 l -3.06915,-7.18606 0.0212,7.18606 h -0.83608 v -8.14914 h 1.27 l 2.94216,7.02731 3.0374,-7.02731 h 1.24883 z"
       style="font-style:normal;font-variant:normal;font-weight:normal;font-stretch:normal;font-size:10.5833px;line-height:1.25;font-family:abeatbyKai;-inkscape-font-specification:'abeatbyKai, Normal';font-variant-ligatures:normal;font-variant-caps:normal;font-variant-numeric:normal;font-variant-east-asian:normal;white-space:pre;fill:#212121;fill-opacity:1;stroke:none"
       id="path1045" />
    <g
       fill="none"
       id="g1021"
       transform="matrix(0.25466064,0,0,0.25466064,78.246764,157.41723)">
      <circle
         cx="16"
         cy="16"
         r="16"
         fill="#48beff"
         id="circle1011" />
      <g
         fill="#ffffff"
         id="g1019">
        <path
           d="M 22.194,26.239 5.81,14.744 a 4.247,4.247 0 0 1 0,-6.953 L 9.78,5 26.166,16.494 a 4.247,4.247 0 0 1 0,6.953 z M 9.776,6.863 6.683,9.027 a 2.729,2.729 0 0 0 0,4.473 l 15.514,10.877 3.094,-2.164 a 2.729,2.729 0 0 0 0,-4.473 z"
           id="path1013" />
        <path
           d="M 9.763,24.377 6.673,22.21 a 2.729,2.729 0 0 1 0,-4.473 l 8,-5.583 -1.32,-0.928 -7.544,5.268 a 4.247,4.247 0 0 0 0,6.953 l 3.957,2.779 4.897,-3.429 -1.314,-0.926 z M 26.17,7.797 22.21,5.02 l -4.9,3.429 1.314,0.925 3.58,-2.505 3.09,2.167 a 2.729,2.729 0 0 1 0,4.473 l -8,5.582 1.315,0.926 7.554,-5.277 a 4.247,4.247 0 0 0 0,-6.953 l 0.008,0.01 z"
           id="path1015" />
        <path
           d="m 6.746,15.829 6.23,-4.362 0.868,1.24 -6.231,4.362 z m 17.75,-1.758 -3.035,2.125 0.868,1.241 3.142,-2.204 C 25.137,14.851 24.814,14.461 24.49,14.07 Z"
           id="path1017" />
      </g>
    </g>
    <path
       d="M 94.242089,165.56637 H 91.90318 q -0.93133,0 -1.523995,-0.51859 -0.592665,-0.51858 -0.592665,-1.49224 v -6.13831 h 0.814914 v 6.28648 q 0,0.42333 0.402165,0.83608 0.254,0.254 0.899581,0.254 h 2.338909 z"
       style="font-style:normal;font-variant:normal;font-weight:normal;font-stretch:normal;font-size:10.5833px;line-height:1.25;font-family:abeatbyKai;-inkscape-font-specification:'abeatbyKai, Normal';font-variant-ligatures:normal;font-variant-caps:normal;font-variant-numeric:normal;font-variant-east-asian:normal;white-space:pre;fill:#212121;fill-opacity:1;stroke:none"
       id="path1039" />
    <path
       d="m 101.60803,161.4283 q 0,1.76741 -1.25941,3.0374 -1.248831,1.25942 -3.005658,1.25942 -1.746245,0 -3.026824,-1.21708 -1.269996,-1.21708 -1.269996,-2.93158 0,-1.75683 1.238246,-3.01624 1.248829,-1.25941 3.005657,-1.25941 1.756828,0 3.037405,1.2065 1.28058,1.19591 1.28058,2.92099 z m -0.78316,0.0529 q -0.0212,-1.41816 -1.058333,-2.40241 -1.02658,-0.98424 -2.455325,-0.98424 -1.407579,0 -2.423576,1.00541 -1.015997,1.00541 -1.015997,2.41299 0,1.397 1.015997,2.40241 1.015997,1.00542 2.434159,1.016 1.439329,0.0106 2.476492,-1.00542 1.037163,-1.01599 1.026583,-2.44474 z"
       style="font-style:normal;font-variant:normal;font-weight:normal;font-stretch:normal;font-size:10.5833px;line-height:1.25;font-family:abeatbyKai;-inkscape-font-specification:'abeatbyKai, Normal';font-variant-ligatures:normal;font-variant-caps:normal;font-variant-numeric:normal;font-variant-east-asian:normal;white-space:pre;fill:#212121;fill-opacity:1;stroke:none"
       id="path1041" />
  </g>
</svg>
