<svg xmlns="http://www.w3.org/2000/svg" width="167.694" height="41.84" viewBox="0 0 44.369 11.07"><path fill="#212121" d="M110.688 161.428q0 1.768-1.259 3.038-1.249 1.26-3.006 1.26-1.746 0-3.026-1.218-1.27-1.217-1.27-2.932 0-1.756 1.238-3.016 1.249-1.26 3.005-1.26 1.757 0 3.038 1.207 1.28 1.196 1.28 2.921zm-.783.053q-.02-1.418-1.058-2.402-1.027-.984-2.455-.984-1.408 0-2.424 1.005t-1.016 2.413q0 1.397 1.016 2.402 1.016 1.006 2.434 1.016 1.44.011 2.477-1.005 1.037-1.016 1.026-2.445zM119.97 165.566h-.825v-7.196l-3.101 7.196h-.688l-3.07-7.186.022 7.186h-.836v-8.149h1.27l2.942 7.028 3.037-7.028h1.25z" font-family="abeatbyKai" font-size="10.583" font-weight="400" style="line-height:1.25;-inkscape-font-specification:'abeatbyKai, Normal';font-variant-ligatures:normal;font-variant-caps:normal;font-variant-numeric:normal;font-variant-east-asian:normal;white-space:pre" transform="translate(-76.924 -155.978)"/><g fill="none" transform="translate(1.323 1.44) scale(.25466)"><circle cx="16" cy="16" r="16" fill="#48beff"/><g fill="#fff"><path d="M22.194 26.239 5.81 14.744a4.247 4.247 0 0 1 0-6.953L9.78 5l16.386 11.494a4.247 4.247 0 0 1 0 6.953zM9.776 6.863 6.683 9.027a2.729 2.729 0 0 0 0 4.473l15.514 10.877 3.094-2.164a2.729 2.729 0 0 0 0-4.473z"/><path d="m9.763 24.377-3.09-2.167a2.729 2.729 0 0 1 0-4.473l8-5.583-1.32-.928-7.544 5.268a4.247 4.247 0 0 0 0 6.953l3.957 2.779 4.897-3.429-1.314-.926zM26.17 7.797 22.21 5.02l-4.9 3.429 1.314.925 3.58-2.505 3.09 2.167a2.729 2.729 0 0 1 0 4.473l-8 5.582 1.315.926 7.554-5.277a4.247 4.247 0 0 0 0-6.953l.008.01z"/><path d="m6.746 15.829 6.23-4.362.868 1.24-6.231 4.362zm17.75-1.758-3.035 2.125.868 1.241 3.142-2.204c-.334-.382-.657-.772-.981-1.163Z"/></g></g><path fill="#212121" d="M94.242 165.566h-2.339q-.931 0-1.524-.518-.592-.519-.592-1.492v-6.139h.814v6.287q0 .423.403.836.254.254.9.254h2.338z" font-family="abeatbyKai" font-size="10.583" font-weight="400" style="line-height:1.25;-inkscape-font-specification:'abeatbyKai, Normal';font-variant-ligatures:normal;font-variant-caps:normal;font-variant-numeric:normal;font-variant-east-asian:normal;white-space:pre" transform="translate(-76.924 -155.978)"/><path fill="#212121" d="M101.608 161.428q0 1.768-1.26 3.038-1.248 1.26-3.005 1.26-1.746 0-3.027-1.218-1.27-1.217-1.27-2.932 0-1.756 1.238-3.016 1.25-1.26 3.006-1.26 1.757 0 3.037 1.207 1.281 1.196 1.281 2.921zm-.783.053q-.021-1.418-1.058-2.402-1.027-.984-2.456-.984-1.407 0-2.423 1.005t-1.016 2.413q0 1.397 1.016 2.402 1.016 1.006 2.434 1.016 1.44.011 2.476-1.005 1.037-1.016 1.027-2.445z" font-family="abeatbyKai" font-size="10.583" font-weight="400" style="line-height:1.25;-inkscape-font-specification:'abeatbyKai, Normal';font-variant-ligatures:normal;font-variant-caps:normal;font-variant-numeric:normal;font-variant-east-asian:normal;white-space:pre" transform="translate(-76.924 -155.978)"/></svg>